<?xml version="1.0" encoding="UTF-8" standalone="no"?>
<svg
   xmlns:dc="http://purl.org/dc/elements/1.1/"
   xmlns:cc="http://creativecommons.org/ns#"
   xmlns:rdf="http://www.w3.org/1999/02/22-rdf-syntax-ns#"
   xmlns:svg="http://www.w3.org/2000/svg"
   xmlns="http://www.w3.org/2000/svg"
   xmlns:sodipodi="http://sodipodi.sourceforge.net/DTD/sodipodi-0.dtd"
   xmlns:inkscape="http://www.inkscape.org/namespaces/inkscape"
   version="1.1"
   viewBox="0 0 160 156"
   id="svg312"
   sodipodi:docname="logo.svg"
   inkscape:version="0.92.1 r15371">
  <metadata
     id="metadata318">
    <rdf:RDF>
      <cc:Work
         rdf:about="">
        <dc:format>image/svg+xml</dc:format>
        <dc:type
           rdf:resource="http://purl.org/dc/dcmitype/StillImage" />
        <dc:title></dc:title>
      </cc:Work>
    </rdf:RDF>
  </metadata>
  <defs
     id="defs316" />
  <sodipodi:namedview
     pagecolor="#ffffff"
     bordercolor="#666666"
     borderopacity="1"
     objecttolerance="10"
     gridtolerance="10"
     guidetolerance="10"
     inkscape:pageopacity="0"
     inkscape:pageshadow="2"
     inkscape:window-width="1920"
     inkscape:window-height="1003"
     id="namedview314"
     showgrid="false"
     inkscape:zoom="1.5128205"
     inkscape:cx="80"
     inkscape:cy="78"
     inkscape:window-x="0"
     inkscape:window-y="25"
     inkscape:window-maximized="1"
     inkscape:current-layer="svg312" />
  <path
     d="m20 0-2 4 21 12c0 10-4 18-13 23l-21-12-1 2c5 15 15 25 35 25 5 0 20 15 28 23l16-16c-8-8-26-26-26-31 0-18-5-30-37-30zm125 5-20 14-2 8-58 58-8-5-4 4c0 12-14 18-20 18l-33 33c0 10 11 21 21 21l33-33c0-6 6-20 18-20l4-4-5-8 58-58 8-2 14-20-6-6zm-50 68-16 16c12 12 28 28 28 33 0 18 5 30 37 30l2-4-21-12c0-10 4-18 13-23l21 12 1-2c-5-15-15-25-35-25-5 0-18-13-30-25z"
     id="path310"
     style="fill:#000080" />
</svg>
